Coordinates
version=1
nRows=17
nColumns=38
inDegrees=no

Units are S.I. units (second, meters, Newtons, ...)
If the header above contains a line with 'inDegrees', this indicates whether rotational values are in degrees (yes) or radians (no).

endheader
time	pelvis_tilt	pelvis_list	pelvis_rotation	pelvis_tx	pelvis_ty	pelvis_tz	hip_flexion_r	hip_adduction_r	hip_rotation_r	knee_angle_r	ankle_angle_r	subtalar_angle_r	mtp_angle_r	hip_flexion_l	hip_adduction_l	hip_rotation_l	knee_angle_l	ankle_angle_l	subtalar_angle_l	mtp_angle_l	lumbar_extension	lumbar_bending	lumbar_rotation	arm_flex_r	arm_add_r	arm_rot_r	elbow_flex_r	pro_sup_r	wrist_flex_r	wrist_dev_r	arm_flex_l	arm_add_l	arm_rot_l	elbow_flex_l	pro_sup_l	wrist_flex_l	wrist_dev_l
1.13	2.34084	1.46264	-0.673656	0.797878	0.477793	1.01537	0.00380367	0.0833976	-0.453058	0.30332	0.115656	0	0	0.440162	-0.11625	0.0387416	1.08003	-0.0418352	0	0	-0.305492	0.0794431	0.0580852	-0.0292343	-0.222238	0.198452	0.417612	1.23763	0	0	0.221445	-0.196501	0.285793	0.153231	1.5708	0	0
1.14	2.3606	1.46353	-0.69422	0.798576	0.486092	1.0156	-0.0112492	0.0851802	-0.449316	0.293446	0.119667	0	0	0.443461	-0.1174	0.0248577	1.04015	-0.0367663	0	0	-0.308758	0.0767511	0.0584806	-0.0227422	-0.220979	0.204406	0.413084	1.23387	0	0	0.225456	-0.196792	0.288521	0.152461	1.5708	0	0
1.15	2.39365	1.44834	-0.724879	0.799458	0.494635	1.0173	-0.0532612	0.106728	-0.440062	0.249741	0.105479	0	0	0.431928	-0.130316	0.0150448	0.995165	-0.0315649	0	0	-0.326169	0.0859361	0.0591367	-0.0133147	-0.220405	0.212864	0.407068	1.22415	0	0	0.232416	-0.195607	0.286575	0.149282	1.5708	0	0
1.16	2.40798	1.46339	-0.741526	0.799758	0.50275	1.01585	-0.0437361	0.0898273	-0.439919	0.271811	0.124958	0	0	0.442721	-0.118519	-0.00141488	0.951176	-0.0278473	0	0	-0.317934	0.0725025	0.0577386	-0.0103182	-0.218649	0.214482	0.405696	1.22255	0	0	0.235889	-0.196326	0.287458	0.146954	1.5708	0	0
1.17	2.41813	1.46741	-0.752908	0.800255	0.511101	1.01538	-0.0515265	0.0869267	-0.440622	0.271492	0.134707	0	0	0.444108	-0.117001	-0.0176804	0.90347	-0.0241748	0	0	-0.318101	0.0681585	0.0581594	-0.00592422	-0.217759	0.216221	0.403446	1.22041	0	0	0.240355	-0.196126	0.287383	0.144425	1.5708	0	0
1.18	2.43253	1.46955	-0.768895	0.800721	0.519557	1.01493	-0.0619896	0.0860209	-0.438543	0.268505	0.140721	0	0	0.442299	-0.116868	-0.0356894	0.853712	-0.0191214	0	0	-0.320052	0.0649427	0.0592193	-0.00114446	-0.21706	0.21874	0.400386	1.21854	0	0	0.245037	-0.195717	0.28642	0.141215	1.5708	0	0
1.19	2.42526	1.47124	-0.769996	0.800894	0.528298	1.0145	-0.0752129	0.0781699	-0.447619	0.262854	0.153579	0	0	0.438698	-0.115183	-0.0540953	0.802385	-0.0137866	0	0	-0.321286	0.0634565	0.063314	0.0052533	-0.217578	0.222136	0.39632	1.21683	0	0	0.247382	-0.194452	0.284288	0.137741	1.5708	0	0
1.2	2.46085	1.47298	-0.80767	0.801204	0.536973	1.014	-0.0868084	0.0751776	-0.445461	0.261865	0.16096	0	0	0.432302	-0.113677	-0.0757545	0.74936	-0.00322403	0	0	-0.324971	0.0587695	0.064184	0.0104385	-0.216335	0.225918	0.391568	1.21401	0	0	0.25199	-0.194311	0.280521	0.134064	1.5708	0	0
1.21	2.57611	1.48193	-0.920846	0.801167	0.544346	1.01426	-0.0940226	0.0605869	-0.444886	0.264612	0.167264	0	0	0.425874	-0.103583	-0.110938	0.690425	-0.00230548	0	0	-0.332314	0.0439782	0.0574376	0.0216261	-0.211631	0.228462	0.383696	1.21173	0	0	0.259812	-0.197007	0.278026	0.133283	1.5708	0	0
1.22	2.57726	1.47383	-0.930294	0.801647	0.554987	1.01314	-0.115789	0.0674952	-0.43497	0.25875	0.173919	0	0	0.409084	-0.108156	-0.125441	0.637608	0.0206917	0	0	-0.336246	0.0470498	0.0666789	0.0188348	-0.213975	0.233902	0.384446	1.20727	0	0	0.260348	-0.194271	0.26795	0.125951	1.5708	0	0
1.23	2.70953	1.48231	-1.05902	0.801152	0.562618	1.01314	-0.121879	0.0512556	-0.437455	0.263478	0.181421	0	0	0.401384	-0.0946068	-0.162819	0.577299	0.0186125	0	0	-0.342531	0.0321648	0.0579982	0.0270444	-0.210262	0.234949	0.381342	1.20637	0	0	0.266634	-0.197221	0.266454	0.127222	1.5708	0	0
1.24	2.77823	1.48351	-1.12966	0.800883	0.571956	1.01232	-0.133502	0.0443112	-0.438133	0.265788	0.190466	0	0	0.39005	-0.0876207	-0.18837	0.520614	0.0185562	0	0	-0.345659	0.0257288	0.0571967	0.028225	-0.209293	0.234062	0.381418	1.20639	0	0	0.267603	-0.19818	0.264738	0.127571	1.5708	0	0
1.25	2.83247	1.48492	-1.18502	0.800438	0.581348	1.01131	-0.144297	0.0387045	-0.438097	0.267259	0.198032	0	0	0.38037	-0.0797983	-0.208618	0.466298	0.0216353	0	0	-0.347431	0.0208633	0.0557823	0.0282736	-0.20892	0.232341	0.383489	1.20689	0	0	0.268058	-0.198798	0.263748	0.127676	1.5708	0	0
1.26	2.88247	1.48674	-1.23515	0.799804	0.590839	1.01014	-0.154474	0.0334326	-0.437547	0.268444	0.205354	0	0	0.371951	-0.070372	-0.221382	0.414593	0.0278012	0	0	-0.347974	0.0166865	0.0532899	0.0276524	-0.208771	0.230445	0.38607	1.2079	0	0	0.267935	-0.199288	0.262938	0.127771	1.5708	0	0
1.27	2.92897	1.48845	-1.28029	0.798977	0.600463	1.00887	-0.164569	0.0286271	-0.43854	0.270069	0.213451	0	0	0.363984	-0.059583	-0.225653	0.365179	0.0336995	0	0	-0.347781	0.0134209	0.0493596	0.0266815	-0.208423	0.227834	0.3883	1.20975	0	0	0.267167	-0.19975	0.261773	0.127894	1.5708	0	0
1.28	3.00445	1.48888	-1.35317	0.798054	0.61006	1.00789	-0.176813	0.0220704	-0.440722	0.270972	0.221583	0	0	0.346139	-0.0402865	-0.204162	0.299698	0.0284362	0	0	-0.349777	0.00825248	0.0435549	0.0271636	-0.206538	0.223377	0.388158	1.21412	0	0	0.266892	-0.200733	0.259788	0.128051	1.5708	0	0
1.29	3.04159	1.48911	-1.38807	0.797014	0.620074	1.00659	-0.188928	0.0187317	-0.442433	0.271399	0.228525	0	0	0.340697	-0.0317125	-0.206318	0.263345	0.0314509	0	0	-0.349387	0.00639142	0.0391825	0.0260177	-0.205161	0.216806	0.38776	1.22247	0	0	0.265543	-0.200598	0.256788	0.126895	1.5708	0	0
